<?xml version="1.0" encoding="UTF-8" standalone="no"?>
<!-- Created with Inkscape (http://www.inkscape.org/) -->

<svg
   version="1.1"
   id="svg1"
   width="350"
   height="100"
   viewBox="0 0 350 100"
   xmlns="http://www.w3.org/2000/svg"
   xmlns:svg="http://www.w3.org/2000/svg">
  <defs
     id="defs1" />
  <g
     id="layer2"
     style="display:inline"
     transform="translate(-1,-4)">
    <g
       id="g12"
       style="fill:#d8c7fa;fill-opacity:1;stroke:none">
      <path
         d="M 67,4 C 31,4 1,27 1,54 C 1,81 31,104 67,104 C 103,104 131,81 131,54 C 131,27 103,4 67,4 Z"
         style="fill:#d8c7fa;fill-opacity:1;stroke:none;stroke-width:0.525971;stroke-linecap:round;stroke-linejoin:round;stroke-miterlimit:0"
         id="path2" />
      <path
         style="fill:#d8c7fa;fill-opacity:1;stroke:none;stroke-width:0.5;stroke-linecap:round;stroke-linejoin:round;stroke-miterlimit:0"
         d="M 23,89 L 5,98 L 17,85"
         id="path3" />
    </g>
    <g
       id="g9"
       style="stroke:#000000;stroke-width:6.30039;stroke-dasharray:none;stroke-opacity:1"
       transform="matrix(0.92533946,0,0,0.92533946,5.0571943,4.0934597)">
      <path
         style="display:inline;fill:#000000;fill-opacity:0.6;stroke:#000000;stroke-width:6.30039;stroke-linecap:round;stroke-linejoin:round;stroke-miterlimit:0;stroke-dasharray:none;stroke-opacity:1"
         d="M 41,35 V 67"
         id="path10"
         transform="matrix(-1,0,0,1,135.47167,0.01285014)" />
      <path
         style="display:inline;fill:#000000;fill-opacity:0.6;stroke:#000000;stroke-width:6.30039;stroke-linecap:round;stroke-linejoin:round;stroke-miterlimit:0;stroke-dasharray:none;stroke-opacity:1"
         d="M 54,25 V 78"
         id="path11"
         transform="matrix(-1,0,0,1,135.47167,0.01285014)" />
      <path
         style="display:inline;fill:#000000;fill-opacity:0.6;stroke:#000000;stroke-width:6.30039;stroke-linecap:round;stroke-linejoin:round;stroke-miterlimit:0;stroke-dasharray:none;stroke-opacity:1"
         d="M 67,13 V 90"
         id="path9" />
      <path
         style="fill:#000000;fill-opacity:0.6;stroke:#000000;stroke-width:6.30039;stroke-linecap:round;stroke-linejoin:round;stroke-miterlimit:0;stroke-dasharray:none;stroke-opacity:1"
         d="M 54,25 V 78"
         id="path8" />
      <path
         style="display:inline;fill:#000000;fill-opacity:0.6;stroke:#000000;stroke-width:6.30039;stroke-linecap:round;stroke-linejoin:round;stroke-miterlimit:0;stroke-dasharray:none;stroke-opacity:1"
         d="M 41,35 V 67"
         id="path7" />
    </g>
  </g>
  <g
     id="g1">
    <path
       style="font-size:13.3333px;font-family:Now;-inkscape-font-specification:'Now, Normal';stroke-width:5.83;stroke-linecap:round;stroke-linejoin:round;stroke-miterlimit:0"
       d="M 141.2,76 C 142.9,76 144.3,74.9 144.3,73.2 C 144.3,69.8 139.4,70.6 139.4,68.2 C 139.4,67.2 140.2,66.8 141.2,66.8 C 141.9,66.8 142.6,67.1 143,67.6 L 143.8,66.9 C 143.3,66.2 142.3,65.7 141.1,65.7 C 139.6,65.7 138.4,66.7 138.4,68.3 C 138.4,71.5 143.2,70.7 143.2,73.2 C 143.2,74.3 142.3,74.9 141.2,74.9 C 140.1,74.9 139.3,74.3 138.9,73.4 L 138,73.9 C 138.5,75.2 139.7,76 141.2,76 Z M 149.6,65.8 H 146 V 75.8 H 147.1 V 71.4 H 149.6 C 151.1,71.4 152.4,70.2 152.4,68.6 C 152.4,67.1 151.1,65.8 149.6,65.8 Z M 149.5,70.4 H 147.1 V 66.9 H 149.5 C 150.5,66.9 151.3,67.6 151.3,68.6 C 151.3,69.7 150.5,70.4 149.5,70.4 Z M 159.4,66.9 V 65.8 H 153.9 V 75.8 H 159.4 V 74.8 H 155 V 71.3 H 158.8 V 70.3 H 155 V 66.9 Z M 167.2,66.9 V 65.8 H 161.7 V 75.8 H 167.2 V 74.8 H 162.8 V 71.3 H 166.6 V 70.3 H 162.8 V 66.9 Z M 174.1,76 C 176,76 177.7,74.9 178.6,73.4 L 177.7,72.8 C 177,74.1 175.7,74.9 174.1,74.9 C 171.9,74.9 170.1,73.1 170.1,70.8 C 170.1,68.6 171.9,66.8 174.1,66.8 C 175.7,66.8 177,67.6 177.7,68.8 L 178.6,68.3 C 177.7,66.7 176,65.7 174.1,65.7 C 171.3,65.7 169,68 169,70.8 C 169,73.7 171.3,76 174.1,76 Z M 186.9,65.8 V 70.3 H 181.4 V 65.8 H 180.4 V 75.8 H 181.4 V 71.4 H 186.9 V 75.8 H 188 V 65.8 Z M 200,65.8 H 193.4 V 66.9 H 196.2 V 75.8 H 197.2 V 66.9 H 200 Z M 207.9,65.8 V 70.3 H 202.4 V 65.8 H 201.3 V 75.8 H 202.4 V 71.4 H 207.9 V 75.8 H 209 V 65.8 Z M 217,66.9 V 65.8 H 211.5 V 75.8 H 217 V 74.8 H 212.6 V 71.3 H 216.4 V 70.3 H 212.6 V 66.9 Z M 223.2,71.3 C 224.6,71.1 225.6,70 225.6,68.6 C 225.6,67.1 224.3,65.8 222.8,65.8 H 219.2 V 75.8 H 220.3 V 71.3 H 222.1 L 225,75.8 H 226.2 Z M 220.3,70.3 V 66.9 H 222.7 C 223.7,66.9 224.5,67.6 224.5,68.6 C 224.5,69.6 223.7,70.3 222.7,70.3 Z M 233.6,75.8 H 234.8 L 231.1,65.8 H 230 L 226.3,75.8 H 227.5 L 228.3,73.5 H 232.8 Z M 228.7,72.5 L 230.6,67.1 L 232.4,72.5 Z M 239.6,65.8 H 236 V 75.8 H 237 V 71.4 H 239.6 C 241.1,71.4 242.3,70.2 242.3,68.6 C 242.3,67.1 241.1,65.8 239.6,65.8 Z M 239.5,70.4 H 237 V 66.9 H 239.5 C 240.5,66.9 241.3,67.6 241.3,68.6 C 241.3,69.7 240.5,70.4 239.5,70.4 Z M 250.7,65.8 H 249.4 L 246.7,70 L 244,65.8 H 242.6 L 246.1,71.1 V 75.8 H 247.2 V 71.1 Z M 263.1,70.3 H 262.2 V 68.6 H 261.2 V 70.3 H 259.1 C 258.1,70.3 257.2,69.5 257.2,68.5 C 257.2,67.4 258,66.9 258.9,66.9 H 261.1 V 65.8 H 258.8 C 257.3,65.8 256.2,66.9 256.2,68.4 C 256.2,69.4 256.6,70.2 257.4,70.7 C 256.6,71.2 256.1,72.1 256.1,73.1 C 256.1,74.7 257.5,75.8 259.2,75.8 C 261,75.8 262.2,74.6 262.2,73 V 71.3 H 263.1 Z M 259.2,74.9 C 258,74.9 257,74.2 257,73.1 C 257,72.1 257.9,71.3 258.9,71.3 H 261.2 V 73 C 261.2,74.1 260.4,74.9 259.2,74.9 Z M 274.6,66.9 V 65.8 H 269.1 V 75.8 H 274.6 V 74.8 H 270.2 V 71.3 H 274 V 70.3 H 270.2 V 66.9 Z M 276.8,75.8 H 279.5 C 282.3,75.8 284.5,73.6 284.5,70.8 C 284.5,68.1 282.3,65.8 279.5,65.8 H 276.8 Z M 277.8,74.8 V 66.9 H 279.5 C 281.7,66.9 283.4,68.6 283.4,70.8 C 283.4,73.1 281.7,74.8 279.5,74.8 Z M 290.2,76 C 292.4,76 294,74.5 294,72.5 V 65.8 H 292.9 V 72.4 C 292.9,73.8 291.8,74.9 290.2,74.9 C 288.7,74.9 287.6,73.8 287.6,72.4 V 65.8 H 286.5 V 72.5 C 286.5,74.5 288.1,76 290.2,76 Z M 301.1,76 C 303,76 304.7,74.9 305.6,73.4 L 304.7,72.8 C 304,74.1 302.7,74.9 301.1,74.9 C 298.9,74.9 297.1,73.1 297.1,70.8 C 297.1,68.6 298.9,66.8 301.1,66.8 C 302.7,66.8 304,67.6 304.7,68.8 L 305.6,68.3 C 304.7,66.7 303,65.7 301.1,65.7 C 298.3,65.7 296,68 296,70.8 C 296,73.7 298.3,76 301.1,76 Z M 313.1,75.8 H 314.3 L 310.7,65.8 H 309.5 L 305.9,75.8 H 307 L 307.9,73.5 H 312.3 Z M 308.2,72.5 L 310.1,67.1 L 312,72.5 Z M 320.8,65.8 H 314.2 V 66.9 H 316.9 V 75.8 H 318 V 66.9 H 320.8 Z M 322.2,75.8 H 323.3 V 65.8 H 322.2 Z M 330.5,76 C 333.4,76 335.7,73.7 335.7,70.8 C 335.7,68 333.4,65.7 330.5,65.7 C 327.7,65.7 325.4,68 325.4,70.8 C 325.4,73.7 327.7,76 330.5,76 Z M 330.5,74.9 C 328.3,74.9 326.5,73.1 326.5,70.8 C 326.5,68.6 328.3,66.8 330.5,66.8 C 332.8,66.8 334.6,68.6 334.6,70.8 C 334.6,73.1 332.8,74.9 330.5,74.9 Z M 344.9,65.8 V 74 L 338.7,65.8 H 337.7 V 75.8 H 338.8 V 67.6 L 344.9,75.8 H 345.9 V 65.8 Z"
       id="text2"
       aria-label="SPEECH THERAPY &amp; EDUCATION" />
    <path
       style="font-weight:bold;font-size:32px;font-family:Now;-inkscape-font-specification:'Now, Bold';fill:#b174e7;stroke-width:5.83;stroke-linecap:round;stroke-linejoin:round;stroke-miterlimit:0"
       d="M 242.3,50.1 C 246.8,50.1 250.6,47.4 250.6,43 C 250.6,34.1 239.6,36.3 239.6,32.1 C 239.6,30.8 240.6,30.1 241.9,30.1 C 243.2,30.1 244.6,30.9 245.8,32.2 L 249.3,28.8 C 247.6,26.8 244.9,25.4 241.9,25.4 C 238.1,25.4 234.2,27.7 234.2,32.5 C 234.2,40.7 245.3,38.7 245.3,42.9 C 245.3,44.2 244.2,45.1 242.4,45.1 C 240.2,45.1 238.4,43.9 237.6,42 L 233.2,44.7 C 234.8,47.7 238.1,50.1 242.3,50.1 Z M 263.6,33.4 C 261.7,33.4 260.2,34.1 259,35.2 V 33.8 H 253.9 V 59.4 H 259 V 48.4 C 260.2,49.4 261.7,50.1 263.6,50.1 C 268,50.1 271.4,46.4 271.4,41.8 C 271.4,37.1 268,33.4 263.6,33.4 Z M 262.6,45.6 C 260.4,45.6 258.8,43.9 258.8,41.8 C 258.8,39.6 260.4,38 262.6,38 C 264.7,38 266.4,39.6 266.4,41.8 C 266.4,43.9 264.7,45.6 262.6,45.6 Z M 291.3,41.7 C 291.3,36.7 287.9,33.4 282.7,33.4 C 277.6,33.4 273.9,36.8 273.9,41.8 C 273.9,46.8 277.5,50.1 282.9,50.1 C 287.3,50.1 290.3,47.7 291.1,44.2 H 286.2 C 285.7,45.5 284.6,46.3 282.8,46.3 C 280.5,46.3 279.3,44.9 279.1,42.6 H 291.3 Z M 282.8,37.3 C 284.5,37.3 285.5,38.1 286,39.5 H 279.4 C 279.9,38.2 281,37.3 282.8,37.3 Z M 311.2,41.7 C 311.2,36.7 307.7,33.4 302.6,33.4 C 297.4,33.4 293.8,36.8 293.8,41.8 C 293.8,46.8 297.4,50.1 302.7,50.1 C 307.2,50.1 310.1,47.7 310.9,44.2 H 306 C 305.6,45.5 304.4,46.3 302.6,46.3 C 300.3,46.3 299.1,44.9 298.9,42.6 H 311.2 Z M 302.6,37.3 C 304.4,37.3 305.4,38.1 305.9,39.5 H 299.2 C 299.8,38.2 300.8,37.3 302.6,37.3 Z M 322.5,50.1 C 327.3,50.1 330.6,47.3 331.3,43.3 H 326 C 325.5,44.6 324.2,45.5 322.5,45.6 C 320.3,45.5 318.7,43.9 318.7,41.8 C 318.7,39.6 320.3,38 322.5,38 C 324.2,38 325.5,38.9 326,40.2 H 331.3 C 330.6,36.2 327.3,33.4 322.5,33.4 C 317.2,33.4 313.6,37 313.6,41.8 C 313.6,46.6 317.2,50.1 322.5,50.1 Z M 344.2,33.4 C 342.4,33.4 340.8,34.2 339.7,35.6 V 22.4 H 334.6 V 49.8 H 339.7 V 40.7 C 339.7,39.3 340.8,38 342.4,38 C 343.8,38 344.8,39.1 344.8,40.5 V 49.8 H 350 V 39.6 C 350,36.1 347.4,33.4 344.2,33.4 Z"
       id="path4" />
    <path
       style="font-weight:bold;font-size:32px;font-family:Now;-inkscape-font-specification:'Now, Bold';fill:#000000;stroke-width:5.83;stroke-linecap:round;stroke-linejoin:round;stroke-miterlimit:0"
       d="M 146.2,50.1 C 150.9,50.1 155,47.4 157.1,43.5 L 152.5,41.1 C 151.4,43.4 149,44.9 146.2,44.9 C 142.1,44.9 139,41.8 139,37.8 C 139,33.7 142.1,30.6 146.2,30.6 C 149,30.6 151.4,32.1 152.5,34.4 L 157.1,32 C 155,28.1 150.9,25.4 146.2,25.4 C 139.4,25.4 133.8,31 133.8,37.8 C 133.8,44.6 139.4,50.1 146.2,50.1 Z M 178.3,45.6 C 177.6,45.6 176.9,45.4 176.9,44 V 33.8 H 171.8 V 35.2 C 170.6,34.1 169.1,33.4 167.3,33.4 C 162.8,33.4 159.4,37.1 159.4,41.8 C 159.4,46.4 162.8,50.1 167.3,50.1 C 169.6,50.1 171.5,49 172.8,47.4 C 173.8,49 175.5,50.1 177.7,50.1 C 178.2,50.1 178.7,49.9 179,49.8 V 45.6 Z M 168.3,45.6 C 166.2,45.6 164.5,43.9 164.5,41.8 C 164.5,39.6 166.2,38 168.3,38 C 170.4,38 172.1,39.6 172.1,41.8 C 172.1,43.9 170.4,45.6 168.3,45.6 Z M 191.7,33.4 C 189.8,33.4 188.2,34.3 187.1,35.7 V 33.8 H 182 V 49.8 H 187.1 V 40.5 C 187.1,39 188.3,38 189.8,38 C 191.3,38 192.3,39 192.3,40.5 V 49.8 H 197.4 V 39.6 C 197.4,36.1 194.8,33.4 191.7,33.4 Z M 211.4,37.7 V 33.8 H 207.6 V 27.6 H 202.6 V 33.8 H 199.9 V 37.7 H 202.6 V 44 C 202.6,47.4 205.4,50.1 208.8,50.1 C 209.9,50.1 211,49.8 211.4,49.6 V 45.6 H 209.5 C 208.4,45.6 207.6,44.8 207.6,43.4 V 37.7 Z M 222.4,50.1 C 227.8,50.1 231.3,46.6 231.3,41.8 C 231.3,37 227.8,33.4 222.4,33.4 C 217,33.4 213.5,37 213.5,41.8 C 213.5,46.6 217,50.1 222.4,50.1 Z M 222.4,45.6 C 220.2,45.5 218.6,43.9 218.6,41.8 C 218.6,39.6 220.2,38 222.4,38 C 224.6,38 226.2,39.6 226.2,41.8 C 226.2,43.9 224.6,45.5 222.4,45.6 Z"
       id="path1" />
  </g>
</svg>
