<?xml version="1.0" encoding="UTF-8"?><svg xmlns="http://www.w3.org/2000/svg" xmlns:xlink="http://www.w3.org/1999/xlink" height="500.0" preserveAspectRatio="xMidYMid meet" version="1.0" viewBox="0.0 0.0 643.6 500.0" width="643.6" zoomAndPan="magnify"><g id="change1_1"><path d="M99.487,471.646L7.803,445.802L0,269.731l109.24-18.516l99.487,23.409l-5.022,156.057L99.487,471.646z M544.073,483.855l91.684-25.844l7.803-176.071l-109.24-18.516l-99.487,23.409l5.022,156.057L544.073,483.855z" fill="#FCB563"/></g><g id="change2_1"><path d="M242.782,432.043l-7.935-0.085c-1.184,11.966-2.367,23.931-3.551,35.897l-112.901-1.212l1.825-35.045 c3.723-0.25,7.447-0.501,11.17-0.751l-1.509-0.016l1.825-35.045c38.477-2.587,76.953-5.175,115.43-7.762 C245.685,402.697,244.234,417.37,242.782,432.043z" fill="#F0876D"/></g><g id="change3_1"><path d="M134.309,430.878l-13.55,7.98l2.064,27.832l-17.889,10.536l-7.232,19.827L85.904,500l6.527-68.444 l8.07,0.012l3.416-35.824l27.79,0.042L134.309,430.878z M465.623,359.658l-2.015,16.19c-1.96,0.918-3.92,1.836-5.88,2.754V352.26 l-22.994,1.943l-2.014,16.19c-7.938,3.718-15.877,7.435-23.815,11.153c0.627,4.491,1.253,8.982,1.88,13.472 c9.715-2.348,19.43-4.695,29.145-7.043c0.581,4.166,1.163,8.332,1.744,12.498c15.648-3.781,31.296-7.563,46.944-11.344v-31.415 L465.623,359.658z" fill="#F0B0C3"/></g><g id="change4_1"><path d="M332.808,311.251c5.676,35.988,11.353,71.977,17.029,107.965c1.136,15.428,2.272,30.855,3.408,46.283 l-74.162,9.495c-26.22-0.704-52.44-1.409-78.66-2.113c-2.138-29.343-4.277-58.686-6.415-88.03 c15.961-0.369,31.921-0.738,47.882-1.107c-2.92-16.112-5.841-32.225-8.761-48.337c1.039-11.659,2.078-23.319,3.117-34.978 C268.432,304.036,300.62,307.644,332.808,311.251z M507.042,244.179l-36.566,5.425l-43.092,12.844l-2.078,25.841 c2.564,23.365,5.127,46.73,7.691,70.095c8.777-1.741,17.553-3.482,26.33-5.222c0.363,2.756,0.725,5.513,1.088,8.269 c10.884-0.959,21.767-1.918,32.651-2.878l-10.52-59.122l17.06-9.637l79.329-4.599l12.242-17.344v-23.495L507.042,244.179z" fill="#4074BA"/></g><g id="change3_2"><path d="M570.778,100.578l15.39,11.454l7.633,49.069l-1.509,24.353l3.69,25.807l-2.181,32.713l-37.438,5.452 l-37.074-5.452l-8.723,8.36l-17.083-22.172l-8.36,3.635l-17.083-11.268l39.619-37.074l16.356-67.243l18.537-11.268L570.778,100.578z M280.05,102.792c-2.434,2.647-4.869,5.294-7.303,7.941c-9.001,18.501-18.002,37.002-27.003,55.503 c-4.508,46.574-9.016,93.148-13.524,139.722c35.734,1.881,71.469,3.762,107.203,5.642c-0.649-6.01-1.299-12.019-1.948-18.029 c26.899,2.321,53.797,4.641,80.696,6.962c1.514-10.216,3.028-20.433,4.543-30.649l-14.262-0.738l-4.434-14.514l-36.558,4.92 l-7.969-44.035l-17.713-29.767c-7.734-20.529-15.468-41.058-23.201-61.587C305.734,117.039,292.892,109.915,280.05,102.792z" fill="#F0B0C3"/></g><g id="change2_2"><path d="M346.681,20.888c4.367,1.604,8.733,3.208,13.1,4.812c0.527,11.81,1.054,23.621,1.581,35.431 c0.226,0.192,3.416,2.996,2.843,7.284c-0.509,3.809-3.573,5.688-3.957,5.914c-0.75,4.537-4.075,21.28-18.915,31.843 c-5.194,3.697-10.383,5.629-14.437,6.684c-2.773,3.769-5.547,7.538-8.32,11.307c-12.465-5.106-24.931-10.212-37.396-15.318 c3.208-8.377,6.416-16.754,9.624-25.131l4.812-23.794l7.753-10.961l14.971,1.871L346.681,20.888z M484.643,255.759l-13.941-3.426 l9.783-13.94h-5.136c-0.646,0.419-1.292,0.839-1.937,1.258v-5.397l-13.841-0.762l-7.453-4.207l-19.697,9.107l-11.712,10.945 l-18.1,7.098l3.904,13.486l18.633-1.775l20.581-10.359c1.169-0.498,2.337-0.996,3.506-1.493c-2.137,1.859-4.274,3.718-6.411,5.577 l-5.511,6.13l-16.56,3.138c-0.859,9.797-1.718,19.595-2.577,29.392c10.214-6.253,20.429-12.505,30.643-18.758l22.132-12.32 l24.213-12.718l1.223-8.56L484.643,255.759z" fill="#F0876D"/></g><g id="change5_1"><path d="M521.525,48.061l44.963,42.185l2.779,14.398c-9.778,1.738-19.557,3.477-29.335,5.215 c-1.838-0.078-11.249-0.664-18.418-8.512c-6.024-6.595-6.694-14.19-6.81-16.406c-3.6-1.264-5.827-4.462-5.557-7.578 c0.235-2.72,2.289-4.416,2.779-4.799V54.376L521.525,48.061z M475.592,257.789l16.369-3.862l15.081-9.748l-8.644-13.794 l-17.912,8.008l-12.446,13.94L475.592,257.789z M485.124,232.125l-11.534,5.146l-9.583-1.775l-11.534,2.897l1.42,13.94l-8.166,5.456 l-4.965-11.29l10.115-13.006l10.825-1.545l9.05-9.405L485.124,232.125z" fill="#F3D3C6"/></g><g id="change4_2"><path d="M353.57,65.45c0,1.79-1.451,3.241-3.241,3.241s-3.241-1.451-3.241-3.241c0-1.79,1.451-3.241,3.241-3.241 S353.57,63.66,353.57,65.45z M347.321,86.622c2.541,0.759,4.769,0.92,6.346,0.912c0.654-1.583,1.308-3.166,1.962-4.749 c-1.717-0.075-3.786-0.299-6.083-0.838c-2.61-0.612-4.791-1.46-6.491-2.26l-1.776,4.057 C342.618,84.658,344.647,85.823,347.321,86.622z M518.189,69.284c-1.528,0-2.767,1.239-2.767,2.767c0,1.528,1.239,2.767,2.767,2.767 c1.528,0,2.767-1.239,2.767-2.767C520.956,70.523,519.717,69.284,518.189,69.284z M521.282,88.516 c1.859-0.522,3.505-0.689,4.759-0.725c-0.12-1.14-0.24-2.28-0.36-3.42c-1.657,0.202-3.469,0.502-5.4,0.945 c-1.591,0.365-3.064,0.78-4.41,1.215c0.297,1.296,0.595,2.593,0.892,3.889C517.864,89.784,519.383,89.05,521.282,88.516z M360.767,47.806c2.231-4.787,4.462-9.574,6.693-14.361c-3.097-5.673-6.193-11.346-9.29-17.019 c-4.866-3.695-9.733-7.391-14.599-11.086c-3.747,0.468-7.495,0.937-11.242,1.405L312.655,0l-26.98,4.216L267.969,29.51v10.961 l-14.614,11.804l-11.242,19.885l-5.059,68.926l8.712,26.137l11.242-13.771l15.739-42.719l-6.183-40.471l6.464-12.366l1.686,11.523 l6.467,18.268l10.677,8.15l4.497-28.965l10.961-15.44l10.118,2.81l1.686,15.177l16.582-20.516l11.523-18.83 C351.738,35.983,356.253,41.895,360.767,47.806z" fill="#4074BA"/></g><g id="change1_2"><path d="M519.248,51.888l16.16,12.928l2.155,34.205l19.931,1.347l16.699-4.848l14.005-21.547l-15.891-48.211 l-14.005-9.427l-12.928,5.117l-15.083-1.885l-16.429,10.773l-7.295,19.283l4.606,13.988L519.248,51.888z" fill="#FCB563"/></g></svg>