<svg xmlns="http://www.w3.org/2000/svg" version="1.1" xmlns:xlink="http://www.w3.org/1999/xlink" width="512" height="356.1741"><svg width="512" height="356.1741" viewBox="0 0 512 356.1741" version="1.1" id="SvgjsSvg1083" xml:space="preserve" xmlns="http://www.w3.org/2000/svg" xmlns:svg="http://www.w3.org/2000/svg"><defs id="SvgjsDefs1082"></defs><g id="SvgjsG1081" transform="matrix(2.2291033,0,0,2.2740385,0.07282828,-0.14104722)"><g id="SvgjsG1080"><path style="display:inline;fill:none;fill-opacity:0.533333;stroke:#8f1eae;stroke-width:8;stroke-linecap:round;stroke-linejoin:miter;stroke-dasharray:none;stroke-opacity:1" d="m 207,39 c 25,29 25,60 0,88" id="SvgjsPath1079" transform="translate(-0.0939021,0.45502589)"></path><path style="display:inline;fill:none;fill-opacity:0.533333;stroke:#8f1eae;stroke-width:8;stroke-linecap:round;stroke-linejoin:miter;stroke-dasharray:none;stroke-opacity:1" d="m 194,52 c 17,18 17,43 -1,62" id="SvgjsPath1078" transform="translate(-0.0939021,0.45502589)"></path><path style="display:inline;fill:none;fill-opacity:0.533333;stroke:#8f1eae;stroke-width:8;stroke-linecap:round;stroke-linejoin:miter;stroke-dasharray:none;stroke-opacity:1" d="m 180,66 c 10,11 10,23 0,34" id="SvgjsPath1077" transform="translate(-0.0939021,0.45502589)"></path></g><g id="SvgjsG1076" style="fill:#ffffff;fill-opacity:1"><g id="SvgjsG1075" style="fill:#ffffff;fill-opacity:1"><ellipse style="display:inline;fill:#ffffff;fill-opacity:1;stroke:#000000;stroke-width:3;stroke-linecap:round;stroke-linejoin:round;stroke-miterlimit:0;stroke-dasharray:none;stroke-opacity:1;paint-order:normal" id="SvgjsEllipse1074" cy="149.68698" cx="78.691521" transform="translate(-0.0939021,0.45502589)" rx="5.0395594" ry="5.0462575"></ellipse><ellipse style="display:inline;fill:#ffffff;fill-opacity:1;stroke:#000000;stroke-width:3;stroke-linecap:round;stroke-linejoin:round;stroke-miterlimit:0;stroke-dasharray:none;stroke-opacity:1;paint-order:normal" id="SvgjsEllipse1073" cx="85.648308" cy="128.60504" transform="translate(-0.0939021,0.45502589)" rx="8.474" ry="8.4737959"></ellipse></g><path style="display:inline;fill:#ffffff;fill-opacity:1;stroke:#000000;stroke-width:3;stroke-linecap:round;stroke-linejoin:round;stroke-miterlimit:0;stroke-dasharray:none;stroke-opacity:1;paint-order:normal" d="m 8,63 c -21,37 14,63 36,39 23,28 38,7 41,2 27,22 43,1 49,-3 22,21 55,-15 31,-37 C 178,47 163,25 148,28 131,1 110,3 100,14 88,1 61,-10 44,22 11,18 1,51 8,63 Z" id="SvgjsPath1072" transform="translate(-0.0939021,0.45502589)"></path></g></g></svg><style>@media (prefers-color-scheme: light) { :root { filter: none; } }
@media (prefers-color-scheme: dark) { :root { filter: none; } }
</style></svg>