<svg xmlns="http://www.w3.org/2000/svg" version="1.1" xmlns:xlink="http://www.w3.org/1999/xlink" width="1000" height="1000"><g clip-path="url(#SvgjsClipPath1017)"><rect width="1000" height="1000" fill="#ffffff"></rect><g transform="matrix(6.153846153846154,0,0,6.153846153846154,100,192.30769230769226)"><svg xmlns="http://www.w3.org/2000/svg" version="1.1" xmlns:xlink="http://www.w3.org/1999/xlink" width="130" height="100"><svg version="1.1" id="svg1" width="130" height="100" viewBox="0 0 130 100" xmlns="http://www.w3.org/2000/svg" xmlns:svg="http://www.w3.org/2000/svg">
  <defs id="defs1"><clipPath id="SvgjsClipPath1017"><rect width="1000" height="1000" x="0" y="0" rx="350" ry="350"></rect></clipPath></defs>
  <g id="layer2" style="display:inline" transform="translate(-1,-4)">
    <g id="g12" style="fill:#d8c7fa;fill-opacity:1;stroke:none">
      <path d="M 67,4 C 31,4 1,27 1,54 C 1,81 31,104 67,104 C 103,104 131,81 131,54 C 131,27 103,4 67,4 Z" style="fill:#d8c7fa;fill-opacity:1;stroke:none;stroke-width:0.525971;stroke-linecap:round;stroke-linejoin:round;stroke-miterlimit:0" id="path2"></path>
      <path style="fill:#d8c7fa;fill-opacity:1;stroke:none;stroke-width:0.5;stroke-linecap:round;stroke-linejoin:round;stroke-miterlimit:0" d="M 23,89 L 5,98 L 17,85" id="path3"></path>
    </g>
    <g id="g9" style="stroke:#000000;stroke-width:6.30039;stroke-dasharray:none;stroke-opacity:1" transform="matrix(0.92533946,0,0,0.92533946,5.0571943,4.0934597)">
      <path style="display:inline;fill:#000000;fill-opacity:0.6;stroke:#000000;stroke-width:6.30039;stroke-linecap:round;stroke-linejoin:round;stroke-miterlimit:0;stroke-dasharray:none;stroke-opacity:1" d="M 41,35 V 67" id="path10" transform="matrix(-1,0,0,1,135.47167,0.01285014)"></path>
      <path style="display:inline;fill:#000000;fill-opacity:0.6;stroke:#000000;stroke-width:6.30039;stroke-linecap:round;stroke-linejoin:round;stroke-miterlimit:0;stroke-dasharray:none;stroke-opacity:1" d="M 54,25 V 78" id="path11" transform="matrix(-1,0,0,1,135.47167,0.01285014)"></path>
      <path style="display:inline;fill:#000000;fill-opacity:0.6;stroke:#000000;stroke-width:6.30039;stroke-linecap:round;stroke-linejoin:round;stroke-miterlimit:0;stroke-dasharray:none;stroke-opacity:1" d="M 67,13 V 90" id="path9"></path>
      <path style="fill:#000000;fill-opacity:0.6;stroke:#000000;stroke-width:6.30039;stroke-linecap:round;stroke-linejoin:round;stroke-miterlimit:0;stroke-dasharray:none;stroke-opacity:1" d="M 54,25 V 78" id="path8"></path>
      <path style="display:inline;fill:#000000;fill-opacity:0.6;stroke:#000000;stroke-width:6.30039;stroke-linecap:round;stroke-linejoin:round;stroke-miterlimit:0;stroke-dasharray:none;stroke-opacity:1" d="M 41,35 V 67" id="path7"></path>
    </g>
  </g>
</svg></svg></g></g></svg>