<?xml version="1.0" encoding="UTF-8" standalone="no"?>
<!-- Created with Inkscape (http://www.inkscape.org/) -->

<svg
   version="1.1"
   id="svg1"
   width="229.24709"
   height="156.9133"
   viewBox="0 0 229.24709 156.9133"
   xmlns="http://www.w3.org/2000/svg"
   xmlns:svg="http://www.w3.org/2000/svg">
  <defs
     id="defs1" />
  <g
     id="g1"
     transform="translate(-139.03642,-105.03894)">
    <g
       id="g4"
       style="fill:#8f1eae;fill-opacity:1">
      <path
         style="fill:#8f1eae;fill-opacity:1"
         d="m 343.2,234.8 c -2.0057,-2.0057 -1.36958,-4.4078 2.34453,-8.85329 11.76137,-14.07746 16.62224,-32.1886 13.09074,-48.77496 -2.05277,-9.64123 -5.10482,-16.05751 -11.95748,-25.13807 -5.10638,-6.76655 -5.50815,-7.65693 -4.28665,-9.5 2.91752,-4.40215 6.37331,-2.67878 13.17924,6.57235 8.49229,11.54336 12.65564,24.28107 12.71259,38.89397 0.063,16.17458 -5.34652,31.10895 -15.30386,42.25 -5.11762,5.72599 -7.49635,6.83276 -9.77911,4.55 z"
         id="path6" />
      <path
         style="fill:#8f1eae;fill-opacity:1"
         d="m 329.57143,222.42857 c -2.31786,-2.31786 -1.96555,-3.77063 2.08173,-8.58396 11.96063,-14.22451 12.51973,-34.87577 1.34323,-49.6149 C 330.79838,161.33106 329,158.15856 329,157.17971 329,154.90243 330.90108,153 333.17675,153 c 1.96079,0 8.87572,8.22236 11.89939,14.14925 2.56868,5.03503 4.89079,15.15329 4.90908,21.39065 0.0307,10.46274 -5.38064,24.12253 -12.56196,31.7101 -3.89261,4.11282 -5.47776,4.55264 -7.85183,2.17857 z"
         id="path5" />
      <path
         style="fill:#8f1eae;fill-opacity:1"
         d="m 316.75,208.9199 c -2.54106,-1.48003 -2.15472,-4.37852 1.2011,-9.0111 5.26268,-7.26492 5.06345,-17.17276 -0.47774,-23.75809 C 313.59934,171.54669 314.64517,167 319.57822,167 c 3.20225,0 9.11609,9.09455 10.53899,16.20728 0.86893,4.3436 0.85611,6.85243 -0.0537,10.5 -1.44781,5.80474 -5.2968,12.64226 -8.30119,14.74662 -2.56843,1.799 -2.70237,1.81145 -5.01236,0.466 z"
         id="path4" />
    </g>
    <g
       id="g2"
       style="fill:#000000;fill-opacity:1">
      <g
         id="g3"
         style="fill:#000000;fill-opacity:1">
        <g
           id="g15">
          <path
             style="fill:#ffffff;fill-opacity:1;stroke:#000000;stroke-width:0;stroke-opacity:1"
             d="m 76.437494,152.97997 c -1.161839,-0.67671 -1.51565,-2.76499 -0.693772,-4.09481 1.197513,-1.93762 4.917948,-2.83228 6.416763,-1.54305 0.666486,0.57329 0.678174,0.62613 0.367669,1.6625 -0.737489,2.46152 -2.713879,4.25303 -4.675118,4.23779 -0.53792,-0.004 -1.174913,-0.12228 -1.415542,-0.26243 z"
             id="path9"
             transform="translate(139.03642,105.03894)" />
          <path
             style="fill:#000000;fill-opacity:1"
             d="m 212.05201,259.55536 c -5.78442,-6.15724 3.65134,-14.95358 10.72548,-9.99866 3.04832,2.13513 2.93955,6.81717 -0.23204,9.98875 -3.20535,3.20536 -7.48768,3.2094 -10.49344,0.01 z m 9.2258,-4.26575 c 0.85508,-1.87668 0.80874,-2.61808 -0.20268,-3.24318 -2.28783,-1.41396 -6.54433,0.37654 -6.91262,2.9078 -0.65509,4.50242 5.09322,4.77337 7.1153,0.33538 z"
             id="path3" />
        </g>
        <g
           id="g14">
          <path
             style="fill:#ffffff;fill-opacity:1;stroke:#000000;stroke-width:0;stroke-opacity:1"
             d="m 83.125,134.41526 c -2.589287,-0.85764 -4.348729,-2.46084 -4.884569,-4.4508 -0.218999,-0.8133 -0.17792,-1.15867 0.253932,-2.13494 1.078037,-2.43709 3.720452,-4.81922 5.367082,-4.83843 0.419955,-0.005 1.414849,-0.16452 2.210874,-0.35473 1.722987,-0.41169 2.688361,-0.20641 3.744257,0.79622 1.352269,1.28404 1.969138,2.97525 1.969138,5.39858 0,2.33982 -1.105461,4.16946 -3.160714,5.23126 -1.243852,0.6426 -4.076549,0.82433 -5.5,0.35284 z"
             id="path8"
             transform="translate(139.03642,105.03894)" />
          <path
             style="fill:#000000;fill-opacity:1"
             d="m 224.5,243.34506 c -1.1,-0.23261 -2.90895,-0.61299 -4.0199,-0.8453 -3.50682,-0.73328 -6.4801,-4.31961 -6.4801,-7.81621 0,-9.02436 11.7631,-14.07429 18.07692,-7.76047 3.25356,3.25355 3.58841,5.54879 1.52871,10.47835 -1.23403,2.95344 -5.13681,6.79953 -6.57814,6.48257 -0.29012,-0.0638 -1.42749,-0.30632 -2.52749,-0.53894 z m 4.67126,-5.00005 c 3.94939,-3.57415 1.13364,-12.19909 -3.57034,-10.93631 -1.1555,0.31019 -2.57857,0.57014 -3.16236,0.57765 -1.85232,0.0238 -5.43856,4.01497 -5.43856,6.05261 0,5.00654 8.19395,7.90547 12.17126,4.30605 z"
             id="path2" />
        </g>
      </g>
      <path
         style="fill:#ffffff;fill-opacity:1;stroke:#000000;stroke-width:0;stroke-opacity:1"
         d="m 62.75,113.47497 c -3.952383,-0.60113 -7.662323,-2.44837 -11.380158,-5.66638 -2.347352,-2.03176 -3.8611,-3.91131 -4.727014,-5.8693 C 45.98606,100.45422 45.456405,100 44.381475,100 c -1.080803,0 -2.44086,0.86104 -5.889223,3.72841 -5.15548,4.28687 -7.511237,5.26034 -12.742252,5.2655 -5.740497,0.006 -10.741547,-2.12508 -15.421289,-6.57038 C 4.9900292,97.352305 2.7538678,91.04144 3.4891947,83.121135 4.1896399,75.576545 6.240608,69.459928 9.3499855,65.64245 10.191047,64.609855 10.498671,64.014877 10.495052,63.427773 10.492331,62.986247 10.033312,60.9375 9.4750103,58.875 8.5703025,55.532792 8.4463048,54.7308 8.334744,51.5 8.220586,48.19398 8.2653393,47.65949 8.8433348,45.425875 9.954245,41.132852 12.931456,36.076565 16.582677,32.28191 c 3.031422,-3.150508 8.01487,-6.108226 12.419,-7.370783 4.4109,-1.264498 8.17423,-1.40876 12.668976,-0.485646 C 44.78362,25.064811 44.95392,24.925728 48.007735,19.25 51.979667,11.867884 54.393285,9.005757 58.375,6.9562417 64.080883,4.019242 72.911362,2.534141 78.27035,3.6102622 c 2.846625,0.5716213 6.028787,1.6580558 8.530375,2.912388 4.896872,2.4553618 10.58595,7.0098618 11.58504,9.2746258 0.26149,0.592748 0.579088,1.150609 0.705775,1.23969 0.452697,0.31832 1.56722,-0.324784 3.78346,-2.183142 7.0737,-5.931417 10.56298,-7.1364098 17.27975,-5.967407 4.36263,0.7592808 11.02553,3.440208 14.63018,5.88669 4.18774,2.842226 10.96507,11.148742 10.96507,13.439153 0,1.045587 1.31919,1.425805 6.125,1.765342 4.10721,0.29018 6.28039,0.878895 8.0315,2.175733 1.58218,1.171728 3.28827,3.334747 4.76029,6.035212 2.74185,5.02998 3.34889,7.663268 2.86558,12.430488 -0.42042,4.146958 -1.17135,6.298522 -3.17658,9.101623 -0.90709,1.268009 -1.59047,2.440219 -1.51861,2.604907 0.0719,0.16469 1.26336,1.874435 2.64777,3.799435 2.73399,3.801557 5.25366,8.530128 5.88069,11.036085 0.49537,1.979765 0.49115,5.22506 -0.009,7.17783 -0.54116,2.111473 -2.24993,5.650217 -4.01036,8.305188 -1.74409,2.630342 -5.33525,6.356645 -7.56548,7.850197 -6.1149,4.09505 -12.61214,4.80009 -18.43338,2.00026 -2.1496,-1.03389 -3.51626,-2.02029 -6.05265,-4.368537 l -1.56459,-1.448533 -5.17743,5.22981 c -5.29062,5.34414 -6.43887,6.24908 -9.49635,7.48405 -4.27693,1.72753 -12.04019,1.81601 -18.5175,0.21106 -5.312585,-1.31636 -9.696698,-3.50614 -13.343703,-6.66491 -1.230332,-1.06562 -2.36812,-1.93237 -2.528417,-1.92609 -0.160298,0.006 -1.19145,1.32788 -2.29145,2.93689 -2.289632,3.34914 -6.160858,7.3927 -7.8774,8.22808 -0.62007,0.30177 -1.80132,0.73035 -2.625,0.95242 -1.82464,0.49192 -6.898402,0.68446 -9.1226,0.34617 z"
         id="path7"
         transform="translate(139.03642,105.03894)" />
      <path
         style="fill:#000000;fill-opacity:1"
         d="M 195.47651,220.20802 C 189.4881,217.31611 183,211.86567 183,209.72691 c 0,-0.61558 -1.46418,0.29989 -3.25373,2.03439 -6.66707,6.46199 -16.69346,7.59557 -26.51666,2.99797 -5.68244,-2.65958 -11.71448,-9.65644 -13.11298,-15.21039 -2.43485,-9.66964 -0.59763,-23.12508 3.94625,-28.90169 1.1369,-1.44533 1.80487,-3.05215 1.48438,-3.57071 -1.60366,-2.59479 -2.32643,-10.92969 -1.35072,-15.57648 2.19636,-10.4601 7.86223,-17.95349 17.21682,-22.7701 5.03754,-2.59379 7.36578,-3.16466 13.50792,-3.31205 l 7.42127,-0.17809 2.22678,-4.38157 c 3.13819,-6.17493 6.95787,-9.69643 14.24051,-13.12881 5.77293,-2.72085 7.00676,-2.93639 14.5,-2.53306 9.36692,0.50419 18.61583,4.02911 23.24221,8.85801 l 2.74943,2.86978 2.89473,-2.43575 c 5.99854,-5.04745 18.4329,-5.78269 27.07164,-1.60074 5.25064,2.54179 15.27131,11.32053 17.21709,15.08327 1.15914,2.24152 2.28257,2.85551 5.98922,3.27331 C 302.90541,132.41995 310,141.62556 310,153.9849 c 0,4.39997 -0.60509,7.77906 -1.81953,10.16111 -1.80865,3.54757 -1.80515,3.58619 0.58503,6.46145 5.38324,6.47573 6.68035,14.79291 3.68022,23.59781 -4.44181,13.03602 -20.42673,21.66516 -32.23755,17.4028 -2.3605,-0.85188 -4.97035,-2.22739 -5.79966,-3.0567 -1.34378,-1.34378 -1.84624,-1.12241 -4.61815,2.03462 -3.76506,4.28816 -10.76953,7.99028 -16.8214,8.89072 -5.65664,0.84163 -17.2745,-1.52038 -23.93645,-4.86649 l -4.97549,-2.49904 -2.11272,2.96705 c -2.78284,3.90813 -8.54359,6.75141 -15.12029,7.46277 -4.53706,0.49075 -6.21435,0.14591 -11.3475,-2.33298 z m 17.98933,-2.75884 c 1.79746,-0.85295 4.756,-3.66545 6.57454,-6.25 1.81854,-2.58455 3.4159,-4.84918 3.54969,-5.03251 0.1338,-0.18334 1.16539,0.58879 2.29244,1.71584 4.13055,4.13055 12.28586,7.40825 19.61749,7.88446 10.76147,0.69899 14.99499,-0.85872 21.63835,-7.96177 l 5.63836,-6.02849 2.05846,2.05846 c 10.46654,10.46654 26.41514,5.61497 34.1909,-10.40089 3.57197,-7.35725 2.49044,-12.90538 -4.36075,-22.37013 l -2.83469,-3.91605 2.27067,-3.07125 c 1.56427,-2.11578 2.39079,-4.86095 2.65678,-8.82405 0.32338,-4.81833 -0.0723,-6.6379 -2.43599,-11.20173 -3.70609,-7.15575 -6.39223,-8.97427 -13.57209,-9.18827 -3.63825,-0.10844 -5.75,-0.60264 -5.75,-1.34564 0,-2.70389 -6.67786,-10.94624 -11.40614,-14.07838 -2.80162,-1.85587 -8.01886,-4.12518 -11.59386,-5.04292 -8.24257,-2.11594 -12.8866,-1.0083 -19.24737,4.59068 -3.87744,3.41306 -4.59452,3.72609 -4.99832,2.18194 -0.76071,-2.90896 -9.10882,-9.09298 -15.13364,-11.21054 -6.71604,-2.36049 -11.2745,-2.45959 -19.12157,-0.41569 -8.02298,2.08972 -11.4979,5.02391 -15.92332,13.4455 -3.70261,7.04607 -3.78708,7.12349 -6.9121,6.3354 -8.73556,-2.20301 -19.86886,1.5938 -26.13316,8.91223 -7.3156,8.54663 -9.07836,16.09247 -6.07299,25.99648 1.25261,4.12787 1.25013,4.91762 -0.0194,6.18718 -4.68737,4.68737 -7.64054,19.2146 -5.47695,26.94218 2.64842,9.45924 12.1924,16.93641 21.51103,16.85267 6.04457,-0.0543 8.41838,-1.06343 13.7807,-5.85821 4.28482,-3.83132 6.33814,-4.21962 7.24269,-1.36965 0.95237,3.00065 6.46263,8.08978 10.98224,10.14289 4.94599,2.24681 12.62315,2.39154 16.98803,0.32026 z"
         id="path1" />
    </g>
  </g>
</svg>
