<?xml version="1.0" encoding="UTF-8" standalone="no"?>
<!-- Created with Inkscape (http://www.inkscape.org/) -->

<svg
   width="830"
   height="230"
   viewBox="0 0 829.99999 230"
   version="1.1"
   id="svg1"
   xml:space="preserve"
   xmlns="http://www.w3.org/2000/svg"
   xmlns:svg="http://www.w3.org/2000/svg"><defs
     id="defs1" /><g
     id="layer1"
     transform="matrix(1.8783248,0,0,1.8783248,-113.74013,-186.04843)"><path
       style="font-size:18.4562px;font-family:'Glacial Indifference';-inkscape-font-specification:'Glacial Indifference, Normal';stroke:#8f1eae;stroke-width:0"
       d="m 242.1,196.4 c 1.6,0.4 2.7,0.8 3.3,1.3 0.4,0.3 0.6,0.8 0.6,1.3 0,0.5 -0.1,0.9 -0.3,1.2 -0.6,0.8 -1.6,1.2 -3,1.2 -2,0 -3.1,-0.7 -3.3,-2 h -1.5 c 0.4,2.1 2,3.2 4.8,3.2 1.2,0 2.3,-0.3 3.1,-0.8 1,-0.6 1.5,-1.6 1.5,-2.9 0,-1 -0.4,-1.8 -1.2,-2.4 -0.6,-0.4 -1.5,-0.8 -2.8,-1.1 -1.3,-0.3 -2.1,-0.6 -2.5,-0.8 -0.8,-0.4 -1.3,-1 -1.3,-1.8 0,-0.4 0.1,-0.8 0.3,-1 0.5,-0.7 1.3,-1.1 2.5,-1.1 1.7,0 2.7,0.6 3,1.6 h 1.4 c -0.5,-1.8 -1.9,-2.7 -4.4,-2.7 -1.1,0 -2.1,0.3 -2.9,0.9 -0.8,0.6 -1.3,1.5 -1.3,2.6 0,1.6 1.3,2.7 3.8,3.3 z m 8.4,-0.3 V 191 h 2.9 c 0.8,0 1.4,0.2 1.8,0.7 0.4,0.5 0.7,1.1 0.7,1.8 0,0.8 -0.2,1.4 -0.7,1.9 -0.5,0.5 -1.1,0.7 -1.8,0.7 z m 6.7,-2.5 c 0,-1.1 -0.4,-2 -1.2,-2.7 -0.8,-0.7 -1.7,-1.1 -2.8,-1.1 h -4 v 12.6 h 1.3 v -5 h 2.7 c 1.1,0 2,-0.4 2.8,-1.1 0.8,-0.7 1.2,-1.6 1.2,-2.7 z m 9.2,8.8 v -1.2 h -6.2 v -4.5 h 6 v -1.2 h -6 V 191 h 6.3 v -1.2 H 259 v 12.6 z m 10.2,0 v -1.2 h -6.2 v -4.5 h 6 v -1.2 h -6 V 191 h 6.2 v -1.2 h -7.5 v 12.6 z m 14.3,-3.8 h -1.4 c -0.4,0.8 -1.1,1.5 -1.8,2 -0.8,0.5 -1.6,0.7 -2.6,0.7 -1.4,0 -2.6,-0.5 -3.5,-1.5 -1,-1 -1.4,-2.2 -1.4,-3.6 0,-1.4 0.5,-2.6 1.4,-3.6 0.4,-0.5 1,-0.8 1.6,-1.1 0.6,-0.3 1.2,-0.4 1.8,-0.4 0.6,0 1.1,0.1 1.5,0.2 1.3,0.4 2.4,1.2 3,2.5 h 1.4 c -0.5,-1.2 -1.2,-2.1 -2.3,-2.9 -1.1,-0.7 -2.2,-1.1 -3.5,-1.1 -1.8,0 -3.2,0.6 -4.4,1.9 -0.6,0.6 -1,1.3 -1.3,2.1 -0.3,0.8 -0.5,1.6 -0.5,2.5 0,1.8 0.6,3.3 1.8,4.5 1.2,1.3 2.7,1.9 4.4,1.9 1.3,0 2.4,-0.4 3.5,-1.1 1.1,-0.7 1.8,-1.7 2.3,-2.9 z m 3.2,3.8 v -5.6 h 5.7 v 5.6 h 1.3 v -12.6 h -1.3 v 5.6 h -5.7 v -5.6 h -1.3 v 12.6 z M 307.8,191 h 3 v 11.4 h 1.3 V 191 h 3 v -1.2 h -3 -1.3 -3 z m 10.4,11.4 v -5.6 h 5.7 v 5.6 h 1.3 v -12.6 h -1.3 v 5.6 h -5.7 v -5.6 h -1.3 v 12.6 z m 17.2,0 v -1.2 h -6.2 v -4.5 h 6 v -1.2 h -6 V 191 h 6.2 v -1.2 h -7.5 v 12.6 z m 4.1,-6.2 v -5.1 h 2.9 c 0.8,0 1.4,0.2 1.8,0.7 0.4,0.5 0.7,1.1 0.7,1.8 0,0.7 -0.2,1.3 -0.7,1.8 -0.5,0.5 -1.1,0.7 -1.8,0.7 z m 6.7,-2.6 c 0,-1.1 -0.4,-2 -1.2,-2.7 -0.8,-0.7 -1.7,-1.1 -2.8,-1.1 h -3.8 v 12.6 h 1.3 v -5 h 1.5 l 3.7,5 h 1.7 l -3.9,-5 c 1,-0.1 1.8,-0.4 2.5,-1.1 0.8,-0.7 1.2,-1.6 1.2,-2.7 z m 4.1,4.2 2.3,-5.8 2.3,5.8 z m 7.8,4.6 -5.5,-13.4 -5.5,13.4 h 1.4 l 1.3,-3.4 h 5.5 l 1.3,3.4 z m 2.9,-6.2 v -5.1 h 2.9 c 0.8,0 1.4,0.2 1.8,0.7 0.4,0.5 0.7,1.1 0.7,1.8 0,0.8 -0.2,1.4 -0.7,1.9 -0.5,0.5 -1.1,0.7 -1.8,0.7 z m 6.7,-2.5 c 0,-1.1 -0.4,-2 -1.2,-2.7 -0.8,-0.7 -1.7,-1.1 -2.8,-1.1 h -4 v 12.6 h 1.3 v -5 h 2.7 c 1.1,0 2,-0.4 2.8,-1.1 0.8,-0.7 1.2,-1.6 1.2,-2.7 z m 6.6,2.9 4.7,-6.6 h -1.6 l -3.7,5.4 -3.7,-5.4 h -1.7 l 4.8,6.7 v 5.9 h 1.3 z m 14.8,-0.5 2.7,3.5 c -0.2,0.2 -0.4,0.4 -0.6,0.6 -0.8,0.8 -1.6,1.1 -2.2,1.1 -0.6,0 -1.2,-0.2 -1.6,-0.7 -0.4,-0.5 -0.7,-1 -0.7,-1.7 0,-0.5 0.3,-1.1 0.9,-1.7 0.3,-0.3 0.8,-0.7 1.5,-1.2 z m -0.1,-2 c -0.6,-0.6 -0.8,-1.1 -0.8,-1.7 0,-0.5 0.1,-0.9 0.5,-1.2 0.3,-0.2 0.6,-0.4 1,-0.3 0.4,0 0.7,0.1 1,0.4 0.3,0.3 0.5,0.6 0.5,1.1 0,0.5 -0.2,0.9 -0.6,1.3 -0.2,0.2 -0.4,0.3 -0.6,0.5 -0.2,0.1 -0.4,0.3 -0.6,0.4 -0.1,-0.1 -0.3,-0.3 -0.4,-0.5 z m 6.2,3.5 -1.1,-0.7 -0.7,0.9 c -0.2,0.3 -0.5,0.6 -0.7,0.9 l -2.6,-3.3 c 0.2,-0.2 0.5,-0.4 0.7,-0.6 1,-0.8 1.4,-1.6 1.4,-2.4 0,-0.8 -0.3,-1.4 -0.8,-1.9 -0.5,-0.5 -1.1,-0.7 -1.9,-0.7 -0.8,0 -1.5,0.3 -2,0.8 -0.5,0.5 -0.7,1.2 -0.7,1.9 0,0.8 0.4,1.7 1.3,2.7 -0.4,0.3 -0.7,0.5 -1.1,0.8 -1.2,0.9 -1.8,1.9 -1.8,3.1 0,1.1 0.3,1.9 1,2.6 0.3,0.3 0.7,0.6 1.2,0.8 0.4,0.2 1,0.3 1.5,0.3 0.6,0 1.2,-0.2 2,-0.7 0.4,-0.2 0.9,-0.6 1.5,-1.3 l 1.4,1.8 h 1.7 l -2.2,-2.8 c 0.9,-1.1 1.5,-1.8 1.7,-2.1 z m 15.6,4.9 v -1.2 h -6.2 v -4.5 h 6 v -1.2 h -6 v -4.5 h 6.2 v -1.2 h -7.5 v 12.6 z m 12.5,-6.3 c 0,-0.9 -0.2,-1.7 -0.5,-2.5 -0.3,-0.8 -0.8,-1.4 -1.4,-2 -0.6,-0.6 -1.3,-1 -2,-1.3 -0.8,-0.3 -1.6,-0.5 -2.5,-0.5 h -3.3 v 12.6 h 3.3 c 0.9,0 1.7,-0.1 2.5,-0.5 0.8,-0.3 1.5,-0.8 2,-1.3 0.6,-0.6 1,-1.2 1.4,-2 0.3,-0.8 0.5,-1.6 0.5,-2.5 z m -1.3,0 c 0,1.4 -0.5,2.6 -1.5,3.6 -1,0.9 -2.2,1.4 -3.7,1.4 h -2 v -10 h 2 c 1.4,0 2.7,0.5 3.7,1.4 1,1 1.5,2.2 1.5,3.6 z m 12.6,2.1 v -8.4 h -1.3 v 8.6 c 0,0.5 -0.1,0.9 -0.3,1.3 -0.5,1 -1.6,1.6 -3.1,1.6 -1,0 -1.8,-0.2 -2.4,-0.7 -0.7,-0.5 -1,-1.2 -1,-2.2 v -8.6 h -1.3 v 8.4 c 0,1.4 0.4,2.4 1.3,3.2 0.8,0.7 2,1.1 3.4,1.1 1.4,0 2.5,-0.4 3.3,-1.1 0.9,-0.8 1.3,-1.8 1.3,-3.2 z m 14,0.3 h -1.4 c -0.4,0.8 -1.1,1.5 -1.8,2 -0.8,0.5 -1.6,0.7 -2.6,0.7 -1.4,0 -2.6,-0.5 -3.5,-1.5 -1,-1 -1.4,-2.2 -1.4,-3.6 0,-1.4 0.5,-2.6 1.4,-3.6 0.4,-0.5 1,-0.8 1.6,-1.1 0.6,-0.3 1.2,-0.4 1.8,-0.4 0.6,0 1.1,0.1 1.5,0.2 1.3,0.4 2.4,1.2 3,2.5 h 1.4 c -0.5,-1.2 -1.2,-2.1 -2.3,-2.9 -1.1,-0.7 -2.2,-1.1 -3.5,-1.1 -1.8,0 -3.2,0.6 -4.4,1.9 -0.6,0.6 -1,1.3 -1.3,2.1 -0.3,0.8 -0.5,1.6 -0.5,2.5 0,1.8 0.6,3.3 1.8,4.5 1.2,1.3 2.7,1.9 4.4,1.9 1.3,0 2.4,-0.4 3.5,-1.1 1.1,-0.7 1.8,-1.7 2.3,-2.9 z m 3.2,-0.8 2.3,-5.8 2.3,5.8 z m 7.8,4.6 -5.5,-13.4 -5.5,13.4 h 1.4 l 1.3,-3.4 h 5.5 l 1.3,3.4 z M 458.5,191 h 3 v 11.4 h 1.3 V 191 h 3 v -1.2 h -3 -1.3 -3 z m 10.4,11.4 v -12.6 h -1.3 v 12.6 z m 13.8,-6.3 c 0,1.4 -0.5,2.7 -1.5,3.7 -1,1 -2.2,1.5 -3.7,1.5 -1.4,0 -2.6,-0.5 -3.6,-1.5 -1,-1 -1.5,-2.2 -1.5,-3.7 0,-1.4 0.5,-2.6 1.5,-3.6 1,-1 2.2,-1.5 3.6,-1.5 1.4,0 2.6,0.5 3.7,1.5 1,1 1.5,2.2 1.5,3.6 z m 1.3,0 c 0,-0.9 -0.2,-1.7 -0.5,-2.5 -0.3,-0.8 -0.8,-1.5 -1.4,-2 -0.6,-0.6 -1.3,-1 -2,-1.4 -0.8,-0.3 -1.6,-0.5 -2.5,-0.5 -0.9,0 -1.7,0.2 -2.5,0.5 -0.8,0.3 -1.5,0.8 -2,1.4 -0.6,0.6 -1.1,1.3 -1.4,2 -0.3,0.8 -0.5,1.6 -0.5,2.5 0,0.9 0.2,1.7 0.5,2.5 0.3,0.8 0.8,1.5 1.4,2.1 0.6,0.6 1.3,1.1 2,1.4 0.8,0.3 1.6,0.5 2.5,0.5 0.9,0 1.7,-0.2 2.5,-0.5 0.8,-0.3 1.5,-0.8 2,-1.4 0.6,-0.6 1.1,-1.3 1.4,-2.1 0.3,-0.8 0.5,-1.6 0.5,-2.5 z m 3.5,-2.9 7.1,10 v -13.3 h -1.3 v 9.2 l -7.1,-10 v 13.3 h 1.3 z"
       id="text2"
       aria-label="SPEECH THERAPY &amp; EDUCATION" /><g
       id="text1"
       style="font-size:6.38867px;fill:#8f1eae;stroke:#8f1eae;stroke-width:0"
       aria-label="CantoSpeech"
       transform="translate(190.52612,-155.69876)"><path
         style="font-size:56.7882px;font-family:Oswald;-inkscape-font-specification:'Oswald, Normal';fill:#8f1eae;stroke:#000000;stroke-width:0;stroke-opacity:1"
         d="m 174.6,325.2 q -4,0 -6.6,-1.7 -2.6,-1.7 -4,-4.7 -1.4,-3 -1.6,-7 l 5.7,-1.5 q 0.2,2.4 0.7,4.7 0.6,2.3 2,3.7 1.4,1.4 3.8,1.4 2.5,0 3.7,-1.4 1.3,-1.4 1.3,-4 0,-3.1 -1.4,-5 -1.4,-1.9 -3.6,-3.9 l -7.7,-6.8 q -2.3,-2 -3.4,-4.3 -1.1,-2.4 -1.1,-5.8 0,-5.1 2.9,-7.8 2.9,-2.8 7.9,-2.8 2.7,0 4.8,0.7 2.1,0.7 3.5,2.2 1.4,1.5 2.2,3.7 0.9,2.2 1.1,5.2 l -5.5,1.5 q -0.2,-2.3 -0.7,-4.1 -0.5,-1.9 -1.8,-3.1 -1.2,-1.2 -3.6,-1.2 -2.4,0 -3.7,1.3 -1.3,1.2 -1.3,3.7 0,2.1 0.7,3.5 0.7,1.4 2.3,2.8 l 7.8,6.8 q 2.6,2.3 4.6,5.5 2,3.1 2,7.4 0,3.4 -1.4,5.9 -1.4,2.4 -3.9,3.7 -2.4,1.3 -5.7,1.3 z m 15.5,10.3 v -43.6 h 6.1 v 2.6 q 1.1,-1.2 2.6,-2.2 1.5,-0.9 3.6,-0.9 2.6,0 4,1.4 1.5,1.3 2.3,3.4 0.7,2 1,4.1 0.2,2 0.2,3.5 v 8 q 0,3.5 -0.7,6.6 -0.7,3.1 -2.5,5 -1.8,1.9 -5,1.9 -1.8,0 -3.1,-0.9 -1.4,-0.9 -2.4,-2 v 13.2 z m 10.4,-15.1 q 1.6,0 2.3,-1.1 0.7,-1.2 0.9,-3.2 0.2,-2 0.2,-4.4 v -8 q 0,-2 -0.2,-3.7 -0.2,-1.8 -1,-2.8 -0.7,-1 -2.3,-1 -1.2,0 -2.3,0.5 -1.1,0.5 -1.9,1.2 v 21 q 0.9,0.6 1.9,1.1 1.1,0.4 2.4,0.4 z m 24,4.8 q -3.9,0 -6,-1.5 -2.1,-1.5 -3,-4.4 -0.8,-3 -0.8,-7.2 v -7.5 q 0,-4.4 0.9,-7.3 0.9,-2.9 3,-4.4 2.2,-1.5 5.9,-1.5 4.1,0 6.1,1.7 2,1.7 2.6,4.9 0.6,3.2 0.6,7.7 v 2.7 h -12.9 v 6.6 q 0,2 0.3,3.2 0.4,1.2 1.2,1.9 0.9,0.6 2.2,0.6 1.4,0 2,-0.6 0.7,-0.7 1,-1.9 0.3,-1.2 0.3,-2.9 v -2 h 5.9 v 1.2 q 0,4.9 -2.1,7.8 -2.1,2.8 -7.2,2.8 z m -3.6,-20 h 7 v -3 q 0,-2 -0.2,-3.4 -0.2,-1.4 -1,-2.1 -0.7,-0.7 -2.2,-0.7 -1.5,0 -2.3,0.7 -0.7,0.7 -1,2.3 -0.3,1.6 -0.3,4.4 z m 27.5,20 q -3.9,0 -6,-1.5 -2.1,-1.5 -3,-4.4 -0.8,-3 -0.8,-7.2 v -7.5 q 0,-4.4 0.9,-7.3 0.9,-2.9 3,-4.4 2.2,-1.5 5.9,-1.5 4.1,0 6.1,1.7 2,1.7 2.6,4.9 0.6,3.2 0.6,7.7 v 2.7 h -12.9 v 6.6 q 0,2 0.3,3.2 0.4,1.2 1.2,1.9 0.9,0.6 2.2,0.6 1.4,0 2,-0.6 0.7,-0.7 1,-1.9 0.3,-1.2 0.3,-2.9 v -2 h 5.9 v 1.2 q 0,4.9 -2.1,7.8 -2.1,2.8 -7.2,2.8 z m -3.6,-20 h 7 v -3 q 0,-2 -0.2,-3.4 -0.2,-1.4 -1,-2.1 -0.7,-0.7 -2.2,-0.7 -1.5,0 -2.3,0.7 -0.7,0.7 -1,2.3 -0.3,1.6 -0.3,4.4 z m 27.4,20 q -4,0 -6.1,-1.6 -2,-1.6 -2.8,-4.6 -0.7,-3 -0.7,-6.9 v -7.6 q 0,-4.1 0.7,-7 0.7,-3 2.8,-4.5 2.1,-1.6 6.1,-1.6 3.6,0 5.5,1.2 2,1.1 2.7,3.5 0.7,2.3 0.7,5.7 v 1.9 h -5.5 v -2 q 0,-2.2 -0.3,-3.4 -0.3,-1.2 -1,-1.8 -0.7,-0.6 -2.1,-0.6 -1.5,0 -2.3,0.7 -0.8,0.7 -1.1,2.3 -0.2,1.6 -0.2,4.4 v 10.3 q 0,4.2 0.8,5.6 0.8,1.4 2.8,1.4 1.5,0 2.2,-0.7 0.7,-0.7 0.9,-2 0.2,-1.3 0.2,-3 v -2.7 h 5.5 v 2.3 q 0,3.3 -0.8,5.7 -0.7,2.4 -2.7,3.6 -1.9,1.2 -5.5,1.2 z m 14.5,-0.5 v -46 h 6.1 v 16.6 q 1.6,-1.6 3.7,-2.7 2,-1.1 4.5,-1.1 1.9,0 3,1 1.1,1 1.5,2.6 0.5,1.5 0.5,3.1 v 26.6 h -6.1 V 300 q 0,-1.8 -0.5,-2.7 -0.5,-1 -2.1,-1 -1.1,0 -2.3,0.6 -1.1,0.6 -2.2,1.5 v 26.3 z"
         id="path8"
         transform="translate(1.9997734e-6)" /><path
         style="font-size:56.7882px;font-family:Oswald;-inkscape-font-specification:'Oswald, Normal';fill:#000000;stroke:#8f1eae;stroke-width:0"
         d="m 56.3,325.2 q -4.9,0 -7.6,-2 -2.7,-2 -3.7,-5.5 -1,-3.5 -1,-7.7 v -16.2 q 0,-4.7 1,-8.1 1.1,-3.5 3.7,-5.3 2.7,-1.9 7.6,-1.9 4.3,0 6.8,1.6 2.6,1.6 3.6,4.5 1.1,3 1.1,7.1 v 3.6 h -6.1 v -3.2 q 0,-2.6 -0.3,-4.5 -0.2,-2 -1.4,-3.1 -1.1,-1.1 -3.8,-1.1 -2.7,0 -4,1.2 -1.2,1.1 -1.6,3.3 -0.3,2.1 -0.3,4.9 V 311 q 0,3.5 0.6,5.5 0.6,2 1.9,2.8 1.3,0.9 3.5,0.9 2.6,0 3.7,-1.1 1.1,-1.2 1.4,-3.2 0.3,-2 0.3,-4.8 v -3.4 h 6.1 v 3.4 q 0,4.2 -1,7.4 -1,3.2 -3.5,5 -2.5,1.8 -7,1.8 z m 22.1,-0.1 q -1.9,0 -3.4,-1.1 -1.5,-1.1 -2.3,-2.8 -0.9,-1.8 -0.9,-3.7 0,-3.1 1,-5.2 1,-2.1 2.8,-3.5 1.8,-1.5 4.1,-2.6 2.4,-1.1 5,-2.1 v -2.3 q 0,-2 -0.2,-3.3 -0.2,-1.3 -1,-1.9 -0.7,-0.7 -2.1,-0.7 -1.2,0 -2,0.6 -0.7,0.6 -1.1,1.6 -0.3,1 -0.3,2.4 v 1.6 l -6,-0.2 q 0.1,-5.5 2.5,-8 2.4,-2.6 7.4,-2.6 4.9,0 6.9,2.7 2,2.7 2,7.7 v 15 q 0,1.5 0.1,3 0.1,1.4 0.2,2.7 0.2,1.2 0.3,2.3 h -5.5 q -0.2,-0.9 -0.5,-2.3 -0.2,-1.4 -0.3,-2.6 -0.6,1.9 -2.2,3.6 -1.6,1.6 -4.4,1.6 z m 2.4,-5.2 q 0.9,0 1.7,-0.5 0.8,-0.5 1.4,-1.1 0.6,-0.7 0.9,-1.1 v -9.3 q -1.4,0.8 -2.7,1.6 -1.2,0.8 -2.2,1.7 -0.9,0.9 -1.5,2 -0.5,1.1 -0.5,2.5 0,2 0.7,3.1 0.7,1.1 2.2,1.1 z m 15.9,4.8 v -32.8 h 6.1 v 3.2 q 1.6,-1.5 3.6,-2.6 2,-1.1 4.4,-1.1 2,0 3,1 1.1,1 1.5,2.6 0.5,1.5 0.5,3.1 v 26.6 h -6.1 v -24.8 q 0,-1.8 -0.5,-2.7 -0.5,-1 -2.1,-1 -1,0 -2.2,0.6 -1.1,0.6 -2.1,1.4 v 26.5 z m 33.7,0.5 q -2.6,0 -4.1,-1 -1.5,-1 -2.3,-2.7 -0.7,-1.8 -0.7,-4.1 v -21.5 h -3.5 v -4 h 3.5 v -9.6 h 6.1 v 9.6 h 5.3 v 4 h -5.3 v 21 q 0,1.9 0.6,2.8 0.6,0.8 2.4,0.8 0.5,0 1,-0.1 0.6,-0.1 1.2,-0.1 v 4.5 q -1.1,0.2 -2.1,0.2 -1,0.1 -2.1,0.1 z m 17.8,0 q -3.6,0 -5.7,-1.5 -2.1,-1.5 -3,-4.2 -0.9,-2.7 -0.9,-6.4 v -9.5 q 0,-3.7 0.9,-6.4 0.9,-2.7 3,-4.2 2.1,-1.5 5.7,-1.5 3.6,0 5.7,1.5 2.1,1.5 3,4.2 0.9,2.7 0.9,6.4 v 9.5 q 0,3.7 -0.9,6.4 -0.9,2.7 -3,4.2 -2,1.5 -5.7,1.5 z m 0,-4.5 q 1.8,0 2.4,-1 0.7,-1 0.9,-2.7 0.2,-1.7 0.2,-3.5 v -10.3 q 0,-1.9 -0.2,-3.5 -0.1,-1.6 -0.9,-2.7 -0.7,-1.1 -2.4,-1.1 -1.8,0 -2.5,1.1 -0.7,1 -0.9,2.7 -0.1,1.6 -0.1,3.5 v 10.3 q 0,1.8 0.1,3.5 0.2,1.6 0.9,2.7 0.7,1 2.5,1 z"
         id="path7"
         transform="translate(1.9997734e-6)" /></g><g
       id="g1"
       transform="matrix(0.70463799,0,0,0.71880799,66.488066,103.93828)"><g
         id="g4"><path
           style="display:inline;fill:none;fill-opacity:0.533333;stroke:#8f1eae;stroke-width:8;stroke-linecap:round;stroke-linejoin:miter;stroke-dasharray:none;stroke-opacity:1"
           d="m 207,39 c 25,29 25,60 0,88"
           id="path6"
           transform="translate(-0.0939021,0.45502589)" /><path
           style="display:inline;fill:none;fill-opacity:0.533333;stroke:#8f1eae;stroke-width:8;stroke-linecap:round;stroke-linejoin:miter;stroke-dasharray:none;stroke-opacity:1"
           d="m 194,52 c 17,18 17,43 -1,62"
           id="path5"
           transform="translate(-0.0939021,0.45502589)" /><path
           style="display:inline;fill:none;fill-opacity:0.533333;stroke:#8f1eae;stroke-width:8;stroke-linecap:round;stroke-linejoin:miter;stroke-dasharray:none;stroke-opacity:1"
           d="m 180,66 c 10,11 10,23 0,34"
           id="path4"
           transform="translate(-0.0939021,0.45502589)" /></g><g
         id="g2"
         style="fill:#ffffff;fill-opacity:1"><g
           id="g3"
           style="fill:#ffffff;fill-opacity:1"><ellipse
             style="display:inline;fill:#ffffff;fill-opacity:1;stroke:#000000;stroke-width:3;stroke-linecap:round;stroke-linejoin:round;stroke-miterlimit:0;stroke-dasharray:none;stroke-opacity:1;paint-order:normal"
             id="path3"
             cy="149.68698"
             cx="78.691521"
             transform="translate(-0.0939021,0.45502589)"
             rx="5.0395594"
             ry="5.0462575" /><ellipse
             style="display:inline;fill:#ffffff;fill-opacity:1;stroke:#000000;stroke-width:3;stroke-linecap:round;stroke-linejoin:round;stroke-miterlimit:0;stroke-dasharray:none;stroke-opacity:1;paint-order:normal"
             id="path2"
             cx="85.648308"
             cy="128.60504"
             transform="translate(-0.0939021,0.45502589)"
             rx="8.474"
             ry="8.4737959" /></g><path
           style="display:inline;fill:#ffffff;fill-opacity:1;stroke:#000000;stroke-width:3;stroke-linecap:round;stroke-linejoin:round;stroke-miterlimit:0;stroke-dasharray:none;stroke-opacity:1;paint-order:normal"
           d="m 8,63 c -21,37 14,63 36,39 23,28 38,7 41,2 27,22 43,1 49,-3 22,21 55,-15 31,-37 C 178,47 163,25 148,28 131,1 110,3 100,14 88,1 61,-10 44,22 11,18 1,51 8,63 Z"
           id="path1"
           transform="translate(-0.0939021,0.45502589)" /></g></g></g></svg>
