<?xml version="1.0" encoding="UTF-8"?><svg xmlns="http://www.w3.org/2000/svg" xmlns:xlink="http://www.w3.org/1999/xlink" height="253.4" preserveAspectRatio="xMidYMid meet" version="1.0" viewBox="75.1 83.5 275.1 253.4" width="275.1" zoomAndPan="magnify"><g id="change1_1"><path d="M165.131,166.997c0.01-0.573,0.026-1.147,0.05-1.721c1.565-38.956,36.612-66.991,71.982-73.239 c48.529-8.572,112.98,23.503,101.693,80.679c-6.045,30.611-27.739,58.36-58.458,66.86c-8.469,2.344-18.039,3.854-26.842,3.854 c-18.412,0-32.938-9.573-49.872,2.657c-4.952,3.575-10.076,16.13-17.93,13.363c-5.741-2.021-6.944-13.659-7.333-18.512 C176.421,216.031,164.689,192.074,165.131,166.997z" fill="#F0C0BF"/></g><g id="change2_2"><circle cx="294.18" cy="167.375" fill="#FFF" r="11.328"/></g><g id="change2_6"><circle cx="254.166" cy="167.375" fill="#FFF" r="11.329"/></g><g id="change2_1"><circle cx="216.272" cy="167.375" fill="#FFF" r="11.328"/></g><g><g id="change3_1"><path d="M260.069,241.688c-0.01-0.573-0.026-1.147-0.05-1.721c-1.565-38.956-36.612-66.991-71.982-73.239 c-48.529-8.572-112.98,23.503-101.693,80.679c6.046,30.611,27.739,58.36,58.458,66.86c8.469,2.344,18.039,3.854,26.842,3.854 c18.412,0,32.938-9.572,49.872,2.657c4.952,3.575,10.076,16.13,17.93,13.363c5.741-2.021,6.944-13.659,7.333-18.512 C248.779,290.723,260.511,266.766,260.069,241.688z" fill="#A5D8DC"/></g><g id="change2_4"><circle cx="131.02" cy="242.066" fill="#FFF" r="11.328"/></g><g id="change2_3"><circle cx="171.034" cy="242.066" fill="#FFF" r="11.329"/></g><g id="change2_5"><circle cx="208.928" cy="242.066" fill="#FFF" r="11.328"/></g></g></svg>